<mxfile host="Electron" agent="Mozilla/5.0 (Windows NT 10.0; Win64; x64) AppleWebKit/537.36 (KHTML, like Gecko) draw.io/27.0.5 Chrome/134.0.6998.205 Electron/35.3.0 Safari/537.36" version="27.0.5">
  <diagram name="第 1 页" id="1ISZXP66ttom4p50y0LG">
    <mxGraphModel dx="528" dy="325" grid="1" gridSize="10" guides="1" tooltips="1" connect="1" arrows="1" fold="1" page="1" pageScale="1" pageWidth="827" pageHeight="1169" math="0" shadow="0">
      <root>
        <mxCell id="0" />
        <mxCell id="1" parent="0" />
        <mxCell id="TqxyXy0SHhE-zwgsd13N-1" value="" style="shape=umlLifeline;perimeter=lifelinePerimeter;whiteSpace=wrap;html=1;container=1;dropTarget=0;collapsible=0;recursiveResize=0;outlineConnect=0;portConstraint=eastwest;newEdgeStyle={&quot;curved&quot;:0,&quot;rounded&quot;:0};participant=umlActor;" parent="1" vertex="1">
          <mxGeometry x="130" y="80" width="20" height="200" as="geometry" />
        </mxCell>
        <mxCell id="TqxyXy0SHhE-zwgsd13N-10" value="" style="html=1;points=[[0,0,0,0,5],[0,1,0,0,-5],[1,0,0,0,5],[1,1,0,0,-5]];perimeter=orthogonalPerimeter;outlineConnect=0;targetShapes=umlLifeline;portConstraint=eastwest;newEdgeStyle={&quot;curved&quot;:0,&quot;rounded&quot;:0};" parent="TqxyXy0SHhE-zwgsd13N-1" vertex="1">
          <mxGeometry x="5" y="90" width="10" height="60" as="geometry" />
        </mxCell>
        <mxCell id="TqxyXy0SHhE-zwgsd13N-3" value="" style="shape=umlLifeline;perimeter=lifelinePerimeter;whiteSpace=wrap;html=1;container=1;dropTarget=0;collapsible=0;recursiveResize=0;outlineConnect=0;portConstraint=eastwest;newEdgeStyle={&quot;curved&quot;:0,&quot;rounded&quot;:0};participant=umlBoundary;" parent="1" vertex="1">
          <mxGeometry x="275" y="80" width="50" height="200" as="geometry" />
        </mxCell>
        <mxCell id="TqxyXy0SHhE-zwgsd13N-6" value="" style="html=1;points=[[0,0,0,0,5],[0,1,0,0,-5],[1,0,0,0,5],[1,1,0,0,-5]];perimeter=orthogonalPerimeter;outlineConnect=0;targetShapes=umlLifeline;portConstraint=eastwest;newEdgeStyle={&quot;curved&quot;:0,&quot;rounded&quot;:0};" parent="TqxyXy0SHhE-zwgsd13N-3" vertex="1">
          <mxGeometry x="20" y="130" width="10" height="20" as="geometry" />
        </mxCell>
        <mxCell id="TqxyXy0SHhE-zwgsd13N-4" value="API Server" style="shape=umlLifeline;perimeter=lifelinePerimeter;whiteSpace=wrap;html=1;container=1;dropTarget=0;collapsible=0;recursiveResize=0;outlineConnect=0;portConstraint=eastwest;newEdgeStyle={&quot;curved&quot;:0,&quot;rounded&quot;:0};" parent="1" vertex="1">
          <mxGeometry x="410" y="80" width="100" height="200" as="geometry" />
        </mxCell>
        <mxCell id="TqxyXy0SHhE-zwgsd13N-7" value="進入個人資訊介面()" style="html=1;verticalAlign=bottom;endArrow=block;curved=0;rounded=0;" parent="1" edge="1" target="waq_90hb6bEdvXV73J_--1">
          <mxGeometry relative="1" as="geometry">
            <mxPoint x="145" y="180" as="sourcePoint" />
            <mxPoint x="250" y="180" as="targetPoint" />
          </mxGeometry>
        </mxCell>
        <mxCell id="TqxyXy0SHhE-zwgsd13N-49" value="檢視使用者資料" style="shape=umlFrame;whiteSpace=wrap;html=1;pointerEvents=0;width=100;height=30;" parent="1" vertex="1">
          <mxGeometry x="40" y="40" width="520" height="240" as="geometry" />
        </mxCell>
        <mxCell id="TqxyXy0SHhE-zwgsd13N-50" value="使用者" style="text;html=1;align=center;verticalAlign=middle;whiteSpace=wrap;rounded=0;" parent="1" vertex="1">
          <mxGeometry x="110" y="120" width="60" height="30" as="geometry" />
        </mxCell>
        <mxCell id="TqxyXy0SHhE-zwgsd13N-52" value="個人資訊介面" style="text;html=1;align=center;verticalAlign=middle;whiteSpace=wrap;rounded=0;" parent="1" vertex="1">
          <mxGeometry x="250" y="120" width="100" height="30" as="geometry" />
        </mxCell>
        <mxCell id="waq_90hb6bEdvXV73J_--1" value="" style="html=1;points=[[0,0,0,0,5],[0,1,0,0,-5],[1,0,0,0,5],[1,1,0,0,-5]];perimeter=orthogonalPerimeter;outlineConnect=0;targetShapes=umlLifeline;portConstraint=eastwest;newEdgeStyle={&quot;curved&quot;:0,&quot;rounded&quot;:0};" vertex="1" parent="1">
          <mxGeometry x="295" y="170" width="10" height="20" as="geometry" />
        </mxCell>
        <mxCell id="waq_90hb6bEdvXV73J_--2" value="" style="html=1;points=[[0,0,0,0,5],[0,1,0,0,-5],[1,0,0,0,5],[1,1,0,0,-5]];perimeter=orthogonalPerimeter;outlineConnect=0;targetShapes=umlLifeline;portConstraint=eastwest;newEdgeStyle={&quot;curved&quot;:0,&quot;rounded&quot;:0};" vertex="1" parent="1">
          <mxGeometry x="455" y="170" width="10" height="60" as="geometry" />
        </mxCell>
        <mxCell id="waq_90hb6bEdvXV73J_--3" value="查詢使用者資訊()" style="html=1;verticalAlign=bottom;endArrow=block;curved=0;rounded=0;" edge="1" parent="1" target="waq_90hb6bEdvXV73J_--2">
          <mxGeometry width="80" relative="1" as="geometry">
            <mxPoint x="305" y="179.7" as="sourcePoint" />
            <mxPoint x="385" y="179.7" as="targetPoint" />
          </mxGeometry>
        </mxCell>
        <mxCell id="waq_90hb6bEdvXV73J_--4" value="回傳使用者資訊()" style="html=1;verticalAlign=bottom;endArrow=open;dashed=1;endSize=8;curved=0;rounded=0;" edge="1" parent="1" source="waq_90hb6bEdvXV73J_--2" target="TqxyXy0SHhE-zwgsd13N-6">
          <mxGeometry relative="1" as="geometry">
            <mxPoint x="405" y="220" as="sourcePoint" />
            <mxPoint x="320" y="220" as="targetPoint" />
            <Array as="points">
              <mxPoint x="380" y="220" />
            </Array>
          </mxGeometry>
        </mxCell>
        <mxCell id="waq_90hb6bEdvXV73J_--5" value="顯示個人資訊()" style="html=1;verticalAlign=bottom;endArrow=open;dashed=1;endSize=8;curved=0;rounded=0;" edge="1" parent="1" source="TqxyXy0SHhE-zwgsd13N-6" target="TqxyXy0SHhE-zwgsd13N-10">
          <mxGeometry relative="1" as="geometry">
            <mxPoint x="260" y="220" as="sourcePoint" />
            <mxPoint x="180" y="215" as="targetPoint" />
            <Array as="points" />
          </mxGeometry>
        </mxCell>
      </root>
    </mxGraphModel>
  </diagram>
</mxfile>
